<?xml version="1.0" standalone="no"?>
<!DOCTYPE svg PUBLIC "-//W3C//DTD SVG 20010904//EN"
 "http://www.w3.org/TR/2001/REC-SVG-20010904/DTD/svg10.dtd">
<svg version="1.0" xmlns="http://www.w3.org/2000/svg"
 width="640.000000pt" height="640.000000pt" viewBox="0 0 640.000000 640.000000"
 preserveAspectRatio="xMidYMid meet">
<metadata>
Created by potrace 1.14, written by Peter Selinger 2001-2017
</metadata>
<g transform="translate(0.000000,640.000000) scale(0.100000,-0.100000)"
fill="#000000" stroke="none">
<path d="M2925 6224 c-16 -2 -79 -9 -140 -15 -148 -15 -357 -55 -367 -71 -4
-7 -8 -32 -8 -55 l0 -43 190 0 190 0 12 24 c18 41 37 39 79 -4 21 -22 39 -44
39 -48 0 -5 -11 -15 -25 -22 -14 -7 -25 -19 -25 -25 0 -7 -7 -19 -16 -26 -14
-12 -20 -9 -40 16 l-24 30 -207 5 -208 5 0 68 c0 41 -4 67 -11 67 -12 0 -122
-34 -166 -52 l-28 -10 0 -108 c0 -89 3 -109 16 -114 9 -3 143 -6 298 -6 206 0
285 -3 294 -12 8 -8 12 -52 12 -131 0 -118 0 -120 30 -154 35 -40 38 -70 9
-107 -31 -39 -63 -49 -103 -32 -66 27 -71 111 -8 151 l31 20 1 107 0 108 -307
2 -308 3 -3 129 -3 128 -27 -7 c-25 -6 -250 -110 -260 -120 -5 -5 65 -69 168
-156 111 -94 105 -92 232 -88 l112 4 10 -27 c17 -48 -27 -75 -70 -43 -19 15
-114 21 -113 8 0 -5 41 -42 91 -83 50 -41 110 -91 132 -111 23 -19 82 -70 133
-112 l92 -78 48 6 c26 4 64 7 84 8 20 2 43 8 51 15 8 6 17 9 20 7 9 -10 49
-14 43 -5 -5 9 115 26 148 21 10 -1 26 3 35 11 13 11 15 11 7 -2 -7 -13 -6
-13 7 -2 10 8 19 9 22 3 4 -6 18 -6 34 -1 17 4 36 3 47 -2 12 -7 16 -7 11 0
-7 12 11 20 41 17 12 -1 20 2 17 7 -5 8 11 12 30 9 5 -1 6 4 3 12 -3 7 1 14 9
14 7 0 10 -5 7 -11 -4 -6 1 -5 10 3 9 7 17 10 17 6 0 -13 145 141 268 285 99
115 189 214 277 304 11 12 58 56 104 99 46 43 82 79 80 81 -7 7 -235 56 -258
56 -19 0 -21 -5 -21 -64 0 -36 5 -68 10 -71 14 -9 12 -41 -4 -54 -26 -22 -70
19 -46 43 5 5 10 43 10 83 0 67 -2 73 -22 78 -47 11 -208 25 -350 32 l-148 6
0 -147 0 -148 49 -44 c69 -62 95 -119 88 -195 -12 -131 -104 -219 -230 -219
-218 0 -314 269 -147 412 l40 35 0 151 0 152 -32 -1 c-18 -1 -46 -4 -63 -5z
m692 -161 c3 -7 -10 -24 -27 -39 -30 -27 -31 -30 -29 -107 2 -72 4 -82 30
-108 38 -39 39 -80 3 -108 -34 -27 -72 -27 -101 1 -34 32 -31 81 7 110 29 21
30 23 30 112 0 88 1 91 32 123 32 33 48 37 55 16z m-167 -57 c0 -7 -5 -17 -12
-24 -9 -9 -16 -8 -30 5 -17 15 -17 17 -2 35 13 14 20 15 31 7 7 -6 13 -17 13
-23z m-925 -297 c11 -17 -1 -21 -15 -4 -8 9 -8 15 -2 15 6 0 14 -5 17 -11z
m135 -53 c0 -18 -16 -29 -30 -21 -13 8 -1 35 16 35 8 0 14 -6 14 -14z m-46
-138 c7 -12 5 -20 -7 -32 -16 -16 -18 -16 -39 3 -21 21 -21 21 -2 36 22 17 34
15 48 -7z m455 -97 c8 -15 7 -20 -5 -25 -24 -9 -47 13 -33 30 16 19 26 17 38
-5z"/>
<path d="M3513 5764 c-3 -8 1 -23 10 -31 13 -13 19 -14 31 -3 9 7 16 21 16 31
0 24 -48 26 -57 3z"/>
<path d="M3057 6223 c-9 -8 -9 -107 -1 -204 l7 -74 56 0 c31 0 59 5 63 10 4 6
8 70 8 143 l0 132 -63 0 c-35 0 -67 -3 -70 -7z"/>
<path d="M4245 6201 c-66 -30 -247 -242 -405 -476 -97 -143 -201 -267 -349
-416 -95 -95 -156 -149 -175 -153 -34 -8 -43 -2 -26 19 7 9 11 18 8 20 -2 3
-56 8 -119 11 -132 7 -313 -7 -449 -36 -114 -24 -112 -23 -108 -6 3 14 -97
105 -292 266 -63 52 -172 144 -241 205 -274 240 -448 389 -472 403 -77 47
-140 -72 -184 -351 -25 -159 -25 -532 1 -672 18 -99 44 -162 84 -198 11 -10
18 -26 15 -35 -7 -28 71 -138 127 -178 45 -32 49 -38 37 -53 -8 -9 -22 -31
-31 -48 -9 -18 -21 -33 -26 -33 -24 0 -84 72 -120 145 -38 75 -41 72 -19 -15
18 -72 11 -75 -56 -24 -26 19 -50 33 -53 30 -8 -9 37 -115 71 -165 l30 -44
-51 6 c-29 3 -52 4 -52 1 0 -3 6 -17 14 -32 7 -15 16 -49 20 -77 7 -49 53
-203 66 -218 3 -4 14 19 24 50 21 67 53 133 64 132 4 0 17 -13 30 -29 l22 -29
-29 -104 c-33 -117 -47 -197 -36 -197 5 0 27 11 49 24 47 27 123 47 94 24 -9
-7 -25 -19 -35 -26 -10 -7 -4 -6 13 2 180 85 556 4 690 -148 113 -129 188
-288 206 -435 13 -110 20 -142 25 -118 7 30 81 60 158 64 59 4 77 1 115 -19
35 -18 46 -29 48 -50 4 -32 1 -33 -39 -12 -17 8 -67 18 -112 21 -69 4 -90 2
-129 -16 l-48 -20 0 -51 c0 -73 -27 -196 -57 -260 -14 -30 -26 -62 -27 -70 -1
-8 -6 -15 -13 -15 -6 0 -15 -4 -20 -9 -5 -5 -3 -6 5 -2 6 4 12 4 12 -1 -1 -12
-40 -60 -40 -48 0 5 -20 -11 -45 -35 -24 -24 -41 -48 -38 -53 3 -6 1 -7 -4 -4
-6 4 -22 -4 -36 -17 -14 -13 -28 -22 -31 -19 -2 3 -14 -1 -25 -9 -12 -8 -18
-17 -15 -20 3 -3 -1 -6 -8 -5 -32 1 -49 -4 -43 -13 4 -6 -1 -7 -11 -3 -11 4
-15 3 -10 -5 8 -13 -65 -35 -97 -29 -17 3 -14 5 8 6 17 1 37 6 45 12 12 8 11
9 -5 5 -60 -15 -134 -16 -222 -5 -54 7 -102 12 -108 10 -5 -1 -5 3 2 10 10 10
21 10 51 1 46 -14 166 -17 247 -7 91 12 199 67 270 139 242 243 242 696 1 987
-87 106 -218 192 -343 224 -75 20 -205 19 -274 -1 -210 -62 -393 -255 -449
-473 -38 -147 25 -416 135 -579 54 -81 148 -170 236 -223 34 -20 57 -39 52
-42 -12 -8 -58 16 -105 54 -20 16 -40 29 -45 29 -19 0 -111 91 -164 162 -81
110 -148 296 -149 413 0 22 -6 49 -14 60 -16 24 -17 57 -2 67 5 4 15 31 22 60
6 29 16 68 22 86 6 18 7 30 2 27 -5 -3 -16 -29 -25 -58 -20 -59 -30 -74 -39
-58 -11 17 -52 13 -67 -6 -13 -15 -12 -15 6 -6 25 13 45 6 45 -14 0 -11 -6
-14 -21 -10 -15 4 -23 0 -26 -14 -3 -10 -9 -19 -14 -19 -12 0 -11 -51 0 -69 6
-10 19 -12 45 -7 33 6 36 5 36 -15 0 -72 53 -265 95 -349 25 -50 130 -190 152
-203 7 -4 13 -14 13 -20 0 -14 -170 -74 -235 -84 -37 -5 -160 -62 -152 -70 2
-1 30 6 63 17 74 26 234 66 294 75 43 6 49 3 130 -55 47 -33 102 -72 123 -85
20 -14 37 -27 37 -29 0 -2 -42 -28 -93 -59 -92 -56 -234 -164 -272 -207 -23
-27 -23 -27 112 62 56 37 148 91 205 119 88 45 106 50 128 41 14 -6 62 -26
108 -45 l83 -35 -90 -76 c-50 -42 -119 -112 -153 -154 -67 -83 -60 -81 42 12
36 32 109 92 162 132 l98 73 43 -19 c107 -48 343 -94 577 -113 82 -7 145 -16
145 -22 0 -5 -16 -18 -35 -28 -19 -10 -25 -15 -12 -12 12 4 22 5 22 3 0 -2
-27 -32 -60 -66 -68 -72 -113 -145 -165 -266 -20 -46 -45 -93 -56 -105 -28
-30 -63 -26 -101 10 -25 23 -28 29 -13 25 16 -5 28 7 60 57 21 34 45 73 53 87
l14 25 -18 -23 c-10 -13 -34 -46 -53 -75 -20 -28 -41 -52 -48 -54 -7 -3 -42
23 -78 57 -36 34 -89 72 -118 86 -83 38 -179 29 -212 -22 -8 -13 -22 -24 -30
-24 -7 0 -26 -11 -42 -24 -25 -22 -27 -29 -25 -85 2 -37 -2 -61 -8 -61 -5 0
-10 6 -11 13 -1 23 -18 -28 -18 -59 -1 -46 49 -117 101 -143 24 -11 49 -21 56
-21 6 0 17 -10 23 -22 46 -88 166 -177 288 -215 l83 -26 -5 -76 -6 -76 14 60
c7 33 14 66 14 73 1 6 8 12 16 12 13 0 15 -34 15 -249 0 -283 7 -338 69 -519
22 -64 38 -118 36 -120 -7 -7 -54 85 -90 177 -35 89 -74 246 -75 301 0 14 -5
32 -10 40 -10 16 -9 3 10 -133 12 -83 60 -234 104 -330 30 -65 28 -89 -6 -85
-38 4 -201 -12 -254 -26 l-49 -13 110 -26 c452 -108 865 -133 1275 -77 205 28
461 79 498 99 21 12 -81 31 -210 40 -65 4 -121 10 -124 13 -3 3 8 44 25 91 16
47 36 118 45 157 8 40 17 74 20 77 3 3 36 -8 73 -24 105 -47 201 -66 333 -65
252 1 435 75 600 241 176 178 248 381 237 666 -4 101 -11 150 -31 220 -49 163
-123 296 -211 373 -65 57 -109 76 -192 80 -60 3 -80 0 -125 -20 -60 -28 -134
-98 -154 -145 -8 -18 -14 -59 -14 -91 0 -77 36 -148 131 -262 101 -121 129
-180 129 -273 0 -187 -105 -333 -279 -387 -80 -25 -147 -25 -244 -1 -124 32
-220 90 -282 169 -41 53 -38 65 8 32 22 -16 16 -6 -21 32 -29 30 -67 76 -86
103 l-33 49 26 50 c35 68 36 190 2 285 -53 151 -167 364 -258 483 -23 31 -43
61 -43 67 0 5 15 12 33 15 155 26 270 48 309 60 l48 14 91 -57 c80 -49 270
-188 368 -268 l34 -28 -13 25 c-24 46 -204 215 -298 279 -51 34 -92 65 -90 66
7 7 234 87 258 91 18 4 89 -27 238 -100 117 -58 210 -101 207 -96 -10 17 -207
144 -292 190 -46 24 -83 47 -83 52 0 4 30 23 68 42 37 19 95 54 128 79 l62 45
141 4 c91 2 144 7 152 15 9 9 -2 34 -50 108 -34 53 -59 100 -56 105 3 5 22 14
43 20 70 23 196 94 240 136 l44 42 -93 107 -92 106 12 57 c22 104 30 119 64
132 70 25 82 35 85 69 l3 33 -53 -4 -53 -3 -3 85 c-2 84 -25 269 -40 324 -5
19 -1 59 12 115 30 131 29 475 -3 655 -23 132 -92 392 -176 661 -95 305 -302
777 -362 825 -31 24 -37 24 -88 1z m375 -646 c0 -5 -5 -3 -10 5 -5 8 -10 20
-10 25 0 6 5 3 10 -5 5 -8 10 -19 10 -25z m-56 -546 c10 -51 7 -299 -4 -319
-9 -18 -121 -100 -135 -100 -3 0 4 18 15 41 29 56 20 70 -14 20 -16 -22 -44
-52 -63 -67 l-35 -26 -66 30 c-37 17 -77 33 -89 37 -35 10 -28 21 23 36 37 11
55 26 100 81 41 53 50 68 36 68 -32 0 -31 11 3 41 18 16 59 61 90 99 32 39 61
70 65 70 5 0 10 -10 12 -22 3 -21 4 -21 23 10 24 40 31 40 39 1z m-969 -290
c5 -22 16 -35 37 -44 l30 -12 -26 -7 c-19 -5 -32 -18 -43 -44 l-15 -37 -19 38
c-12 23 -29 39 -46 43 l-26 7 33 16 c24 11 36 26 42 49 10 38 24 35 33 -9z
m-555 -209 c0 -5 -4 -10 -10 -10 -5 0 -10 5 -10 10 0 6 5 10 10 10 6 0 10 -4
10 -10z m515 -156 l30 -12 -30 -1 c-16 -1 -83 -19 -148 -41 -66 -22 -121 -40
-124 -40 -12 0 35 64 61 82 52 38 140 43 211 12z m-593 -16 c-7 -7 -12 -8 -12
-2 0 6 3 14 7 17 3 4 9 5 12 2 2 -3 -1 -11 -7 -17z m-772 -66 c38 -37 54 -70
28 -58 -7 3 -52 18 -100 33 -49 15 -88 30 -88 34 0 12 46 28 82 28 30 1 45 -7
78 -37z m1788 -261 c142 -41 241 -99 350 -205 113 -110 198 -261 216 -388 7
-45 9 -48 37 -48 25 0 29 -3 24 -22 -9 -35 28 -55 61 -33 13 8 26 26 30 40 4
17 18 28 52 39 67 23 75 18 15 -9 -34 -15 -57 -34 -67 -54 -20 -38 -59 -50
-86 -26 -31 28 -50 12 -51 -42 0 -26 -3 -42 -6 -35 -2 6 -8 10 -13 7 -4 -3
-13 28 -20 67 -26 168 -47 233 -110 332 -139 221 -448 374 -710 352 -330 -27
-610 -260 -691 -575 -40 -156 -19 -369 52 -517 41 -87 138 -196 226 -254 131
-86 332 -137 493 -127 249 16 543 199 657 409 38 70 40 51 2 -23 -28 -57 -29
-62 -9 -44 l23 20 -13 -25 c-27 -51 -103 -141 -157 -185 -30 -25 -106 -70
-167 -100 -95 -48 -126 -58 -216 -71 -126 -19 -330 -11 -424 16 -71 20 -201
82 -201 96 -1 5 -33 41 -72 80 -40 39 -68 64 -64 55 13 -23 49 -60 96 -98 22
-18 35 -33 30 -33 -19 0 -104 81 -151 143 -114 151 -170 342 -161 552 6 132
21 193 73 301 94 193 305 359 519 408 39 8 79 18 90 20 51 12 272 -3 343 -23z
m-2452 -398 c-1 -124 -2 -128 -23 -131 -31 -5 -42 23 -44 117 -2 78 0 84 27
112 15 16 31 29 34 29 4 0 7 -57 6 -127z m538 33 c47 -19 62 -65 35 -101 -24
-29 -39 -31 -79 -10 -44 23 -57 86 -22 113 20 15 25 15 66 -2z m1374 -2 c50
-35 16 -114 -48 -114 -41 1 -80 43 -80 89 0 36 88 53 128 25z m-1986 -75 c2
-45 0 -83 -3 -85 -10 -6 -79 17 -79 26 0 18 61 140 70 140 5 0 10 -36 12 -81z
m-56 -162 c25 -14 15 -27 -21 -27 -38 0 -42 10 -24 57 l11 28 10 -25 c5 -14
16 -28 24 -33z m3272 41 c7 -7 12 -19 11 -27 0 -11 -2 -12 -6 -3 -6 14 -49 16
-58 2 -9 -14 -25 -12 -25 3 0 19 21 37 45 37 12 0 26 -5 33 -12z m-23 -87 c-6
-5 -25 10 -25 20 0 5 6 4 14 -3 8 -7 12 -15 11 -17z m-3435 -11 c0 -5 -2 -10
-4 -10 -3 0 -8 5 -11 10 -3 6 -1 10 4 10 6 0 11 -4 11 -10z m2834 -56 c-1 -17
-9 -43 -19 -58 -14 -21 -25 -26 -59 -26 -59 0 -89 19 -97 60 -11 53 2 61 95
58 l81 -3 -1 -31z m-2533 3 c17 -13 44 -110 35 -125 -3 -6 0 -12 8 -15 7 -3
19 -27 25 -53 15 -58 35 -97 74 -146 17 -21 27 -41 23 -45 -3 -4 -32 -9 -64
-11 -75 -5 -181 31 -198 68 -17 35 -32 70 -45 105 -16 42 -39 198 -30 207 6 7
97 25 136 27 11 0 27 -5 36 -12z m1025 -79 c2 -43 0 -48 -20 -48 -34 0 -45 13
-52 58 l-7 43 39 -3 39 -3 1 -47z m-526 7 c47 -8 86 -15 88 -15 1 0 2 -7 2
-15 0 -23 -34 -35 -100 -35 -77 0 -100 12 -100 50 0 35 -2 35 110 15z m2165
-6 c4 -6 13 -8 21 -5 19 7 29 -13 25 -51 -3 -40 28 -61 66 -44 19 9 24 9 21 0
-7 -20 -43 -28 -69 -15 -23 11 -25 9 -57 -56 -64 -127 -171 -221 -319 -281
-73 -30 -136 -45 -113 -27 12 9 10 10 -10 5 -14 -4 -62 -9 -108 -12 -155 -10
-348 53 -409 134 -36 48 -71 136 -80 199 -5 37 -2 49 22 80 l28 37 23 -86 c24
-89 45 -139 71 -169 14 -16 19 -13 65 37 29 32 55 52 61 48 7 -3 9 -3 5 1 -9
11 59 72 96 88 25 10 30 10 34 -3 11 -31 70 -79 99 -79 40 1 104 32 151 74
l39 36 49 -21 c27 -12 52 -27 56 -33 4 -7 13 -5 25 6 17 15 55 23 96 20 23 -2
21 -31 -3 -62 -11 -14 -20 -30 -20 -35 0 -6 -16 -35 -35 -64 -20 -30 -34 -56
-31 -58 5 -5 47 51 72 97 10 19 24 40 31 47 16 18 51 115 59 163 6 39 25 53
39 29z m-2276 -100 c38 -117 83 -197 144 -255 41 -39 45 -41 16 -9 -77 86 -84
110 -40 140 16 10 27 23 25 27 -9 15 -53 8 -63 -9 -12 -22 -24 -12 -15 11 12
31 104 63 104 36 0 -5 -10 -10 -22 -10 -28 0 -17 -10 14 -14 13 -1 29 -6 36
-10 8 -5 33 11 68 43 72 66 88 66 119 -4 15 -34 32 -58 46 -64 31 -11 93 6
119 34 18 19 25 21 46 11 28 -13 30 -33 10 -109 -17 -65 -45 -121 -83 -165
-70 -82 -286 -72 -451 21 -106 59 -190 167 -221 284 -11 40 -13 42 -48 40 -20
-1 -38 3 -40 9 -2 6 7 9 24 7 19 -2 52 10 98 36 39 21 74 38 78 37 5 -1 21
-40 36 -87z m1444 85 c48 -8 47 -28 -2 -42 -56 -17 -99 -15 -109 6 -21 39 15
51 111 36z m-256 -230 c-12 -13 -37 6 -37 28 l0 22 22 -21 c12 -13 19 -25 15
-29z m-299 -62 c9 -6 4 -16 -19 -36 l-31 -28 -26 25 -25 26 34 9 c44 13 51 13
67 4z m1491 -18 c2 -2 -14 -4 -37 -4 -23 0 -42 5 -42 10 0 10 67 4 79 -6z
m-87 -30 c21 -4 36 -9 34 -13 -6 -9 -116 0 -116 10 0 10 29 11 82 3z m-2571
-46 c22 -12 38 -27 36 -32 -2 -6 -23 -16 -48 -23 -41 -12 -45 -12 -68 12 -24
24 -24 25 -6 45 23 26 38 25 86 -2z m169 12 c-14 -4 -34 -8 -45 -9 -16 -1 -17
1 -5 9 8 5 29 9 45 9 29 -1 29 -1 5 -9z m90 -25 c0 -7 -43 -23 -78 -30 -21 -4
-18 -1 13 15 39 19 65 25 65 15z m2230 -5 c11 -7 8 -10 -15 -9 -16 0 -39 4
-50 9 -16 7 -14 9 15 9 19 0 42 -4 50 -9z m-2150 -38 c0 -9 -68 -33 -86 -31
-10 1 66 38 79 39 4 0 7 -4 7 -8z m2100 -23 c12 -7 11 -8 -5 -9 -38 0 -95 13
-95 21 0 10 77 1 100 -12z m-154 -25 c18 -14 18 -15 -6 -8 -31 8 -50 24 -29
24 8 0 24 -7 35 -16z m-2125 -137 c-1 -12 -15 -9 -19 4 -3 6 1 10 8 8 6 -3 11
-8 11 -12z m272 -64 c-7 -2 -19 -2 -25 0 -7 3 -2 5 12 5 14 0 19 -2 13 -5z
m91 -694 c43 -34 30 -83 -16 -58 -29 16 -47 39 -48 62 0 23 31 22 64 -4z m138
-16 c24 -21 24 -73 1 -73 -24 0 -38 10 -52 38 -24 45 12 70 51 35z m-232 -65
c21 -34 15 -52 -15 -46 -23 4 -59 53 -51 67 14 22 46 11 66 -21z m1070 -7 c0
-10 -13 -30 -30 -46 l-30 -29 0 34 c0 38 25 71 46 63 8 -3 14 -13 14 -22z
m-130 -2 c12 -22 4 -79 -11 -79 -16 0 -32 47 -25 74 8 31 21 33 36 5z m-771
-60 c72 -12 111 -31 111 -54 0 -29 -42 -43 -122 -40 -42 2 -82 6 -88 10 -18
11 6 95 28 95 3 0 35 -5 71 -11z m971 -10 c0 -6 -15 -25 -32 -42 l-33 -32 -3
28 c-2 16 2 35 9 43 13 16 59 19 59 3z m-1170 -39 c11 -11 20 -24 20 -30 0 -5
-9 -1 -20 10 -11 11 -25 20 -31 20 -6 0 -1 -9 12 -20 13 -10 19 -19 13 -20
-16 0 -55 40 -49 51 10 15 34 10 55 -11z m1180 -45 c14 -17 5 -51 -17 -59 -12
-5 -14 -1 -10 15 4 15 2 19 -9 15 -17 -6 -18 -1 -4 25 13 23 23 24 40 4z m31
-1052 c93 -95 182 -210 174 -224 -6 -8 -463 -5 -471 4 -2 2 15 46 39 98 24 52
50 112 57 134 18 57 37 75 79 75 31 0 45 -10 122 -87z"/>
<path d="M4350 2768 c-29 -35 -41 -52 -26 -38 28 25 91 100 84 100 -2 0 -28
-28 -58 -62z"/>
<path d="M4233 2659 c-24 -16 -78 -48 -120 -70 -43 -22 -67 -37 -53 -33 34 9
158 78 195 108 41 34 29 32 -22 -5z"/>
<path d="M4003 3053 c12 -14 25 -19 35 -15 15 5 14 7 -3 10 -11 2 -27 9 -35
15 -8 7 -7 2 3 -10z"/>
<path d="M3914 2840 c-10 -11 -48 -35 -84 -55 -36 -19 -61 -35 -57 -35 12 0
120 57 147 79 14 11 22 22 19 25 -3 3 -14 -3 -25 -14z"/>
<path d="M4521 5933 c0 -5 24 -60 53 -123 l52 -115 158 -3 158 -3 -81 56 c-85
58 -319 195 -333 195 -4 0 -8 -3 -7 -7z"/>
<path d="M1308 5592 c-41 -31 -94 -74 -119 -95 l-44 -38 100 6 c55 3 103 9
107 13 7 7 39 165 34 169 -1 2 -36 -23 -78 -55z m-28 -81 c0 -14 -18 -23 -30
-16 -6 4 -8 11 -5 16 8 12 35 12 35 0z"/>
<path d="M4650 5633 c0 -8 51 -145 57 -152 2 -3 9 3 16 12 10 15 40 17 235 19
l222 3 -67 51 c-38 28 -78 56 -90 63 -24 12 -373 16 -373 4z"/>
<path d="M2729 5504 c-17 -21 0 -49 31 -49 31 0 48 28 31 49 -8 9 -21 16 -31
16 -10 0 -23 -7 -31 -16z"/>
<path d="M4803 5462 l-53 -3 0 -70 c0 -43 8 -92 20 -128 70 -208 126 -450 156
-666 17 -124 15 -452 -3 -540 -9 -47 -9 -121 0 -152 17 -56 20 -70 21 -105 0
-20 3 -36 6 -36 22 2 29 -4 23 -19 -5 -12 -3 -14 8 -8 8 5 5 -2 -6 -14 -11
-12 -15 -22 -10 -21 22 5 31 -1 33 -20 4 -43 6 -49 14 -44 4 3 6 -8 4 -25 -2
-20 1 -28 9 -24 7 2 16 -1 20 -7 5 -8 11 -7 23 2 15 12 16 11 4 -4 -8 -10 -10
-23 -6 -30 5 -7 7 -23 5 -36 -1 -14 6 -30 21 -43 13 -11 17 -17 9 -13 -10 5
-13 3 -8 -8 6 -17 -16 -19 -30 -3 -4 4 -2 5 6 0 9 -5 12 -4 7 3 -10 17 -14 15
-30 -17 -18 -34 -12 -43 20 -31 28 11 30 7 29 -42 -2 -35 0 -37 23 -33 19 3
22 1 14 -7 -20 -20 -51 -17 -46 5 3 15 1 17 -12 7 -11 -10 -11 -16 -3 -26 6
-8 15 -11 20 -8 5 3 9 1 9 -5 0 -5 -6 -12 -12 -14 -10 -4 -10 -6 0 -6 7 -1 11
-5 7 -11 -3 -5 -13 -7 -23 -4 -15 5 -15 4 1 -6 9 -6 15 -15 12 -21 -3 -5 1 -6
10 -2 13 5 14 7 3 14 -9 6 -9 9 -1 9 17 0 25 -17 13 -25 -8 -5 -7 -12 2 -23 8
-10 8 -13 1 -9 -7 5 -10 1 -8 -10 1 -10 -5 -27 -14 -38 -14 -17 -14 -18 0 -7
9 6 19 9 22 5 4 -3 13 0 22 7 9 8 15 8 15 2 0 -6 -5 -14 -10 -17 -7 -4 -6 -13
1 -27 7 -13 7 -18 1 -14 -6 3 -14 2 -17 -4 -4 -6 -1 -9 6 -8 6 2 14 -3 17 -11
2 -8 0 -11 -6 -7 -6 3 -13 2 -17 -3 -3 -6 3 -8 15 -6 27 5 41 15 36 24 -3 4 2
8 10 8 10 0 7 -8 -11 -27 -14 -14 -22 -29 -18 -33 10 -10 33 -8 33 3 0 5 -8 7
-17 4 -14 -4 -13 -2 2 7 11 7 33 14 50 16 28 3 47 22 51 51 4 26 35 62 52 62
10 0 31 -13 47 -30 25 -26 36 -30 81 -30 63 0 69 -11 43 -70 -11 -24 -16 -47
-12 -51 4 -4 77 -9 161 -11 84 -2 156 -8 161 -14 5 -5 12 -112 16 -239 12
-420 8 -380 36 -377 16 1 20 -1 11 -6 -10 -7 -9 -12 4 -23 12 -9 15 -10 10 -1
-4 6 -2 12 3 12 6 0 11 -9 11 -19 0 -11 5 -23 10 -26 6 -4 8 -11 5 -16 -3 -5
0 -6 8 -3 8 3 20 -3 28 -13 12 -16 12 -17 -1 -8 -10 6 -9 4 2 -6 9 -9 14 -19
11 -23 -4 -3 -1 -6 5 -6 17 0 26 -39 24 -105 0 -33 3 -75 8 -93 5 -19 5 -30
-1 -27 -5 4 -9 -11 -8 -32 0 -35 3 -32 35 47 18 47 32 93 30 103 -2 9 0 15 4
12 8 -5 84 214 113 330 20 74 67 301 67 318 0 10 -15 11 -60 7 -47 -5 -65 -11
-90 -35 -39 -37 -38 -59 5 -99 28 -27 35 -41 35 -71 0 -74 -55 -124 -123 -111
-73 14 -107 96 -67 160 12 20 25 36 30 36 17 0 40 32 40 54 0 15 18 40 50 70
49 46 50 46 118 46 l69 0 6 38 c3 20 9 84 13 142 l6 105 -149 -3 c-129 -3
-153 -1 -167 13 -13 14 -16 42 -16 183 l0 166 51 48 52 49 -5 293 c-4 206 -2
298 5 305 6 6 22 11 35 11 20 0 22 4 17 23 -16 54 -114 273 -172 386 -86 165
-89 169 -116 164 -34 -7 -53 20 -38 53 10 22 8 32 -11 62 -29 49 -157 220
-169 228 -9 5 -10 -594 -1 -1108 l3 -198 100 0 c113 0 159 -15 178 -56 14 -30
15 -262 1 -298 -18 -47 -54 -56 -229 -56 l-160 0 -48 -30 c-71 -45 -103 -37
-103 28 0 22 -9 45 -25 64 -24 28 -25 36 -25 158 l0 128 35 31 c35 30 38 31
136 31 l99 0 -2 683 -3 683 -29 35 c-58 68 -220 239 -228 239 -10 0 -9 -304 0
-374 7 -46 11 -52 67 -91 80 -57 81 -77 3 -119 -58 -31 -65 -41 -74 -93 -9
-56 -16 -78 -27 -85 -26 -17 -55 -6 -96 36 l-44 45 -83 -6 c-103 -7 -108 -1
-69 98 l28 69 -27 69 c-42 103 -39 107 70 103 91 -3 91 -3 147 35 l56 38 1
158 0 157 -57 1 c-210 3 -335 4 -380 1z m239 -125 l28 -22 -18 -36 c-15 -32
-21 -36 -54 -36 -30 0 -38 4 -38 17 0 10 -7 23 -15 30 -22 18 -18 33 13 52 37
22 52 21 84 -5z m428 -148 c0 -5 -7 -9 -15 -9 -15 0 -20 12 -9 23 8 8 24 -1
24 -14z m-60 -49 c9 -16 8 -22 -6 -27 -18 -7 -35 13 -27 34 7 19 21 16 33 -7z
m70 -116 c0 -8 -7 -14 -15 -14 -15 0 -21 21 -9 33 10 9 24 -2 24 -19z m354
-526 c16 -15 28 -38 32 -64 5 -34 2 -45 -20 -71 l-26 -31 0 -199 c0 -199 0
-199 24 -220 14 -12 37 -23 53 -25 23 -2 29 -8 31 -35 2 -24 -1 -33 -16 -37
-20 -7 -52 1 -52 13 0 10 -36 48 -57 60 -16 8 -19 32 -23 222 l-5 213 -33 8
c-42 11 -75 61 -67 103 3 16 17 42 32 57 34 36 90 38 127 6z m-700 -51 c16
-12 16 -14 -3 -31 -19 -17 -21 -17 -37 -2 -13 13 -14 19 -4 31 15 18 21 19 44
2z m224 -111 c40 -9 42 -33 6 -66 -21 -21 -24 -30 -19 -62 8 -44 -9 -57 -45
-38 -39 21 -53 -6 -51 -98 3 -96 -8 -112 -75 -112 -25 0 -59 -7 -75 -16 -28
-14 -32 -14 -50 2 -21 19 -23 32 -9 54 7 11 29 15 87 15 l78 0 0 55 c1 36 -4
59 -14 66 -10 8 -12 23 -9 52 6 39 4 43 -29 63 -45 28 -42 60 7 75 24 7 41 22
52 44 27 52 39 54 78 11 20 -22 49 -41 68 -45z m-104 -482 c9 -8 16 -19 16
-24 0 -9 -28 -40 -36 -40 -15 0 -44 23 -44 35 0 15 26 45 40 45 5 0 16 -7 24
-16z m-214 -200 c0 -8 -19 -13 -24 -6 -3 5 1 9 9 9 8 0 15 -2 15 -3z m4 -26
c-5 -8 -1 -9 12 -4 18 7 18 6 2 -10 -20 -20 -45 -10 -27 12 14 17 23 19 13 2z
m205 -255 c9 -19 9 -29 2 -31 -6 -2 -9 -7 -6 -11 2 -5 -15 -8 -39 -7 -42 0
-47 6 -36 36 1 3 2 8 1 13 0 4 4 7 10 7 5 0 8 4 5 8 -2 4 8 9 23 10 22 2 31
-4 40 -25z m-103 -195 c4 -7 4 -10 -1 -6 -4 4 -14 0 -22 -10 -10 -13 -13 -14
-11 -2 3 12 16 29 25 30 1 0 5 -6 9 -12z m22 -25 c-2 -17 2 -28 9 -28 6 0 14
-3 18 -7 6 -5 -19 -4 -35 2 -3 1 -9 2 -15 0 -5 -1 -4 4 3 11 6 7 12 21 12 31
0 10 3 18 6 18 3 0 4 -12 2 -27z m974 -177 c30 -22 -9 -47 -41 -27 -12 8 -12
12 -2 25 16 19 21 19 43 2z m-168 -57 c15 -18 16 -25 5 -45 -15 -28 -26 -30
-51 -7 -22 20 -23 31 -1 55 21 23 25 23 47 -3z m244 -57 c2 -7 -3 -12 -12 -12
-9 0 -16 7 -16 16 0 17 22 14 28 -4z m-120 -470 c2 -14 -2 -22 -12 -22 -19 0
-29 17 -22 36 8 22 30 12 34 -14z"/>
<path d="M5734 4446 c-3 -8 -4 -25 -2 -38 2 -18 10 -24 35 -26 28 -3 33 1 39
22 3 14 4 33 0 41 -7 19 -65 20 -72 1z"/>
<path d="M997 5313 c-311 -317 -566 -730 -728 -1175 l-28 -77 47 -3 47 -3 2
-99 c1 -96 2 -99 32 -127 31 -28 31 -29 31 -129 l0 -101 -35 -32 c-20 -18 -39
-46 -43 -62 -15 -54 -86 -41 -80 14 2 15 11 27 23 31 11 3 37 19 58 35 l37 30
0 88 c0 86 -1 89 -30 114 -29 24 -30 27 -30 114 l0 89 -35 0 c-31 0 -35 -3
-44 -37 -47 -178 -89 -463 -97 -668 l-7 -155 126 0 126 0 3 103 3 102 50 5 50
5 3 418 c2 407 2 419 -18 444 -18 23 -19 29 -7 47 22 33 42 41 71 28 36 -16
45 -60 18 -83 -22 -17 -22 -21 -24 -456 l-3 -438 -45 -5 -45 -5 -3 -89 c-2
-50 -8 -96 -14 -103 -8 -10 -47 -13 -149 -13 l-139 0 0 -35 0 -35 194 0 c124
0 197 4 201 10 4 6 24 22 45 35 54 34 60 64 60 298 l0 199 152 151 152 152 -1
53 c0 35 -7 59 -18 72 -32 35 18 100 65 85 49 -16 62 -83 19 -105 -15 -9 -19
-22 -19 -68 l0 -57 -150 -150 -150 -150 0 -183 0 -184 27 -22 c16 -12 47 -23
78 -26 42 -4 50 -9 53 -27 2 -12 -4 -36 -13 -54 -16 -30 -16 -34 0 -70 24 -53
10 -71 -50 -62 -38 5 -49 1 -89 -27 -55 -40 -76 -31 -76 32 0 30 -5 40 -21 47
-17 6 -449 3 -455 -3 -1 0 2 -48 8 -106 11 -129 41 -310 74 -450 34 -143 115
-381 127 -373 6 3 7 2 4 -4 -8 -13 23 -94 34 -87 5 3 6 -3 2 -12 -4 -10 -2
-15 4 -11 5 3 9 -4 9 -16 -1 -13 6 -23 18 -25 11 -3 16 0 12 7 -4 6 -5 11 -2
11 3 0 10 -9 15 -19 9 -16 8 -18 -9 -14 -17 5 -18 2 -10 -28 6 -19 10 -35 10
-37 0 -2 5 0 10 3 6 4 7 12 4 18 -5 9 -3 9 6 0 11 -10 11 -15 -1 -30 -12 -16
-12 -17 1 -7 13 9 34 11 43 4 1 -1 10 -3 21 -5 13 -3 15 0 8 7 -6 6 -8 16 -6
22 3 7 -5 12 -20 12 -17 0 -22 -4 -19 -15 2 -9 -2 -5 -10 9 -18 29 -11 49 7
24 14 -18 24 -10 31 26 5 25 -11 35 -19 13 -6 -15 -8 -15 -16 -3 -5 9 -5 19 1
27 6 7 8 16 5 21 -3 5 5 7 19 5 15 -3 22 -10 18 -19 -3 -8 -3 -14 0 -14 3 0 8
7 11 15 4 11 -3 19 -19 25 -14 5 -25 15 -25 22 0 9 3 9 11 -2 9 -12 9 -11 4 5
-20 54 -16 100 11 150 24 45 27 61 30 170 1 66 3 123 3 126 2 12 46 18 154 20
72 1 107 5 107 13 0 6 5 4 10 -4 10 -15 12 -11 14 22 1 21 19 25 24 6 2 -9 0
-8 -7 2 -7 9 -11 10 -11 3 0 -19 20 -26 26 -9 3 9 9 14 13 12 11 -7 46 18 46
34 0 8 7 14 16 14 9 -1 16 4 16 11 0 8 -7 11 -16 7 -14 -5 -14 -4 -1 13 9 11
10 16 3 11 -8 -4 -13 -2 -13 4 0 6 -6 8 -12 4 -7 -4 -10 -4 -6 1 4 4 3 17 -3
29 -9 19 -9 19 8 -2 19 -23 60 -22 46 2 -4 6 1 5 10 -3 15 -12 17 -12 11 4 -5
13 -4 16 5 10 10 -6 11 -3 2 13 -13 25 -40 35 -56 22 -10 -8 -15 -7 -21 2 -4
7 -3 10 1 5 12 -10 45 22 38 39 -3 9 1 14 12 14 9 0 13 5 10 10 -3 6 -1 10 6
10 7 0 9 3 6 7 -4 3 1 15 10 26 18 19 17 20 -7 7 -18 -9 -22 -9 -14 -1 17 19
48 20 62 2 11 -13 12 -13 7 -1 -4 9 -1 8 8 -3 13 -16 15 -16 21 -1 3 9 3 21
-1 27 -12 20 -12 38 0 34 7 -3 11 -11 9 -18 -3 -11 -1 -12 9 -1 16 15 20 62 6
62 -5 0 -6 -7 -3 -16 4 -10 2 -13 -6 -8 -7 5 -8 3 -3 -6 5 -8 4 -11 -3 -6 -6
4 -8 14 -5 23 5 12 3 14 -7 8 -9 -5 -11 -4 -6 4 4 6 12 9 17 6 5 -4 9 -1 9 5
0 6 5 8 12 4 7 -4 8 -3 4 4 -4 7 -2 20 4 29 11 16 11 16 6 1 -3 -10 -1 -20 5
-23 5 -4 6 -11 3 -17 -4 -6 2 -6 15 1 26 14 27 19 4 17 -20 -1 -24 30 -8 54 7
11 3 10 -20 -3 -30 -18 -30 -18 -8 1 12 11 19 23 15 27 -4 4 4 2 17 -5 17 -9
26 -9 35 0 8 8 6 9 -8 4 -14 -5 -17 -4 -12 5 4 6 4 11 -1 10 -20 -3 -29 2 -29
20 0 15 4 17 16 11 13 -7 16 -3 16 16 0 16 -5 23 -13 20 -7 -3 -15 0 -19 6 -4
6 -3 8 4 4 14 -9 44 23 38 41 -3 8 -1 23 5 34 7 15 7 24 -1 34 -6 7 -10 22 -8
32 2 12 -3 18 -15 17 -12 -1 -15 2 -8 10 6 7 6 17 1 26 -13 21 -12 77 2 125 6
22 11 44 10 48 -2 5 3 5 9 1 9 -5 10 -2 6 10 -4 9 -3 15 2 11 5 -3 23 8 39 24
16 17 33 27 37 23 5 -4 5 1 2 11 -4 9 -2 17 4 17 6 0 7 5 4 10 -3 6 -1 10 5
10 6 0 8 5 5 10 -3 6 -1 10 6 10 6 0 9 8 6 20 -3 11 -2 18 2 15 5 -2 16 2 26
9 14 10 15 15 5 21 -8 5 -11 4 -6 -3 7 -12 -19 -10 -31 2 -4 4 -3 7 2 6 6 -1
13 -1 18 0 4 1 13 3 20 4 6 1 11 11 11 24 -1 19 1 20 14 10 13 -11 14 -10 3
10 -9 17 -9 22 1 22 7 0 14 11 14 25 1 15 -2 22 -9 18 -5 -3 -7 -1 -4 5 4 5
18 9 32 7 30 -3 42 12 26 28 -9 9 -11 7 -6 -8 5 -15 4 -17 -3 -6 -6 8 -8 21
-4 29 3 10 1 13 -6 8 -6 -3 -14 -1 -18 5 -5 8 -3 9 6 4 8 -5 11 -3 8 6 -3 8
-11 13 -17 11 -7 -1 -9 2 -6 8 4 6 9 9 13 6 3 -3 11 2 19 12 12 16 13 16 6 -2
-5 -15 -3 -17 8 -11 12 8 12 6 0 -9 -9 -11 -11 -20 -4 -27 6 -6 10 -5 11 3 8
61 9 77 3 74 -4 -3 -7 4 -7 14 0 15 3 17 15 7 11 -10 13 -9 10 2 -3 8 2 37 11
65 17 50 16 53 -6 118 -13 36 -29 99 -35 140 -8 43 -22 88 -36 109 -13 20 -27
53 -30 73 -5 32 -3 38 16 43 11 3 21 8 21 12 0 4 -7 63 -15 131 -14 110 -18
310 -11 575 l1 50 -41 3 c-35 3 -46 -2 -87 -38 l-47 -42 0 -394 c0 -238 4
-394 9 -394 5 0 21 4 35 10 19 7 29 6 41 -6 21 -22 19 -40 -9 -62 -21 -16 -24
-25 -19 -58 7 -55 -9 -66 -89 -62 l-63 3 -1 47 c-1 37 -6 51 -25 67 -34 28
-16 56 37 56 l39 0 5 410 5 410 55 52 c51 48 60 52 110 55 l55 3 6 40 c4 22 5
42 2 45 -2 3 -58 6 -122 8 l-118 4 -106 -109z m53 -17 c0 -16 -14 -36 -25 -36
-20 0 -30 21 -14 31 15 9 39 12 39 5z m160 -136 c0 -5 -4 -10 -10 -10 -5 0
-10 5 -10 10 0 6 5 10 10 10 6 0 10 -4 10 -10z m58 -191 c-2 -6 -8 -10 -13
-10 -5 0 -11 4 -13 10 -2 6 4 11 13 11 9 0 15 -5 13 -11z m-408 -31 c25 -28
25 -50 0 -73 -16 -15 -20 -29 -18 -64 l3 -45 46 2 c29 2 50 -2 57 -10 6 -8 14
-73 18 -145 7 -130 7 -131 -17 -146 -13 -8 -75 -23 -137 -32 -97 -15 -115 -16
-127 -4 -14 15 -25 153 -12 165 4 4 7 30 7 59 0 64 13 81 70 92 l45 9 3 46 c2
37 -1 51 -17 67 -34 34 -21 75 29 94 25 9 28 8 50 -15z m-24 -773 c12 -12 12
-18 2 -35 -16 -25 -20 -25 -36 1 -10 16 -10 24 -1 35 14 17 17 17 35 -1z
m-137 -106 c1 -5 14 -22 27 -36 26 -28 27 -41 3 -56 -23 -15 -88 55 -82 87 4
19 10 23 26 20 12 -2 24 -9 26 -15z m-69 -204 c-13 -15 -40 -9 -40 9 0 7 5 17
11 23 18 18 45 -12 29 -32z m444 -89 c8 -13 29 -27 46 -31 30 -7 42 -36 20
-50 -5 -3 -10 -23 -10 -44 0 -46 -5 -52 -35 -41 -15 6 -32 4 -51 -6 -34 -18
-54 -12 -54 17 0 11 -11 34 -25 50 -26 32 -24 55 6 64 10 3 28 19 39 36 26 35
43 37 64 5z m-198 -245 c73 -44 44 -133 -46 -142 -29 -3 -40 1 -60 21 -29 29
-27 84 5 115 29 30 59 32 101 6z m266 -337 c-2 -10 -4 -29 -5 -41 -1 -12 -6
-25 -11 -30 -5 -4 -6 -3 -2 4 4 7 2 22 -5 34 -9 17 -8 20 2 14 9 -6 11 -3 6 9
-4 10 -3 15 3 11 6 -3 10 -2 10 4 0 5 -5 12 -10 14 -6 3 -5 4 2 3 7 -2 12 -12
10 -22z m-105 -170 c0 -13 -10 -18 -29 -15 -5 0 -8 -3 -8 -9 0 -11 -32 -1 -42
14 -12 17 -10 22 15 50 l22 26 21 -26 c11 -14 21 -32 21 -40z m-607 -124 c0
-6 11 -15 25 -20 25 -9 33 -34 16 -45 -5 -3 -12 -19 -16 -35 -4 -17 -11 -27
-16 -24 -6 3 -25 6 -44 6 -31 0 -33 2 -37 42 -4 35 -1 44 21 63 28 24 51 30
51 13z m601 -23 c-13 -13 -26 -3 -16 12 3 6 11 8 17 5 6 -4 6 -10 -1 -17z m1
-24 c-10 -4 -9 -9 5 -20 17 -13 16 -13 -5 -3 -22 11 -22 31 1 29 8 0 8 -2 -1
-6z m-305 -75 c34 -37 37 -64 11 -90 -19 -19 -23 -33 -23 -93 l0 -70 -125 -5
-125 -5 3 -145 c2 -80 7 -149 12 -154 15 -15 -9 -46 -34 -46 -13 0 -28 6 -34
13 -15 18 -9 364 7 380 7 7 49 12 114 13 56 1 105 2 110 3 15 2 6 77 -13 106
-27 41 -25 70 6 94 35 27 65 27 91 -1z m-371 -53 c1 -28 -3 -53 -10 -57 -37
-24 -59 17 -24 45 13 10 18 16 11 13 -6 -4 -19 1 -27 10 -17 17 -22 39 -7 29
5 -3 13 -1 16 5 4 6 14 10 23 8 13 -2 17 -15 18 -53z m535 8 c13 -16 12 -17
-3 -4 -10 7 -18 15 -18 17 0 8 8 3 21 -13z m-11 -109 c0 -8 -19 -13 -24 -6 -3
5 1 9 9 9 8 0 15 -2 15 -3z m11 -41 c13 -16 12 -17 -3 -4 -10 7 -18 15 -18 17
0 8 8 3 21 -13z m-48 -17 c3 3 10 -3 16 -13 7 -15 7 -20 -4 -20 -7 0 -11 7 -7
15 3 10 1 13 -6 8 -6 -4 -16 3 -22 16 -10 21 -10 21 3 6 8 -10 17 -15 20 -12z"/>
<path d="M811 4906 c-9 -10 -9 -16 -1 -21 17 -10 37 12 24 25 -8 8 -15 6 -23
-4z"/>
<path d="M840 4670 c0 -38 2 -40 30 -40 31 0 50 22 50 59 0 18 -6 21 -40 21
l-40 0 0 -40z"/>
<path d="M742 4689 c-19 -7 -23 -15 -20 -41 3 -30 6 -33 38 -33 34 0 35 1 38
43 3 46 -7 51 -56 31z"/>
<path d="M810 3461 c0 -15 6 -21 21 -21 14 0 19 5 17 17 -5 26 -38 29 -38 4z"/>
<path d="M672 2719 c2 -6 8 -10 13 -10 5 0 11 4 13 10 2 6 -4 11 -13 11 -9 0
-15 -5 -13 -11z"/>
<path d="M480 4271 c0 -13 26 -32 33 -24 14 13 6 33 -13 33 -11 0 -20 -4 -20
-9z"/>
<path d="M6076 3834 l7 -296 -47 -47 -47 -47 3 -145 3 -144 138 -3 137 -3 0
83 c-1 247 -56 604 -126 821 -23 69 -28 77 -51 77 l-25 0 8 -296z"/>
<path d="M940 4045 c0 -8 7 -15 15 -15 8 0 15 7 15 15 0 8 -7 15 -15 15 -8 0
-15 -7 -15 -15z"/>
<path d="M2008 3933 c7 -3 16 -2 19 1 4 3 -2 6 -13 5 -11 0 -14 -3 -6 -6z"/>
<path d="M2060 3922 c8 -5 26 -13 40 -16 17 -5 20 -4 10 2 -8 5 -26 13 -40 16
-17 5 -20 4 -10 -2z"/>
<path d="M1451 3865 c-1 -11 -4 -31 -7 -45 -5 -22 -4 -23 6 -7 6 10 9 30 7 45
-3 18 -5 20 -6 7z"/>
<path d="M1346 3773 c-6 -14 -5 -15 5 -6 7 7 10 15 7 18 -3 3 -9 -2 -12 -12z"/>
<path d="M5031 3367 c-8 -10 -7 -14 2 -14 8 0 14 6 14 14 0 7 -1 13 -2 13 -2
0 -8 -6 -14 -13z"/>
<path d="M5065 3362 c3 -3 -1 -12 -7 -21 -8 -10 -4 -9 10 3 26 23 26 23 7 23
-8 0 -13 -3 -10 -5z"/>
<path d="M1160 3220 c8 -5 20 -10 25 -10 6 0 3 5 -5 10 -8 5 -19 10 -25 10 -5
0 -3 -5 5 -10z"/>
<path d="M5160 3001 c8 -6 10 -11 4 -11 -7 0 -15 -7 -18 -16 -5 -13 -4 -14 7
-6 14 12 27 7 27 -10 0 -5 -5 -6 -12 -2 -6 4 -8 3 -4 -4 3 -5 3 -12 -1 -15 -5
-2 -2 -2 5 -1 6 2 12 -5 12 -15 0 -11 14 -33 30 -51 36 -38 36 -40 9 -35 -12
3 -18 1 -15 -3 4 -4 13 -7 19 -7 5 0 12 -6 15 -14 3 -8 0 -11 -6 -7 -6 3 -14
2 -17 -4 -4 -6 -3 -10 2 -9 4 1 11 0 16 -1 4 -1 13 -3 20 -4 6 -1 11 -8 9 -15
-1 -7 2 -10 8 -6 6 3 7 12 4 18 -5 9 -4 9 6 0 7 -6 18 -10 24 -9 6 2 8 1 4 -1
-4 -3 0 -15 8 -29 11 -16 12 -24 5 -24 -7 0 -9 -5 -5 -12 4 -6 3 -8 -4 -4 -5
3 -12 1 -14 -6 -3 -8 -7 -6 -11 5 -3 9 -3 16 1 16 21 -3 24 3 6 16 -19 15 -19
15 1 8 18 -6 19 -5 6 11 -11 12 -16 14 -22 5 -4 -7 -5 -18 -2 -25 3 -9 -2 -12
-14 -9 -12 2 -20 -2 -20 -11 0 -9 4 -11 12 -4 12 10 25 4 25 -12 0 -5 -4 -7
-9 -3 -5 3 -12 1 -15 -4 -6 -10 46 -7 63 3 9 6 15 -4 13 -24 0 -3 15 -6 33 -6
18 0 32 3 29 7 -2 4 2 9 10 12 8 3 17 -1 20 -9 3 -9 10 -13 15 -9 5 3 17 -5
27 -17 14 -20 16 -20 10 -3 -7 18 -5 18 14 -3 12 -13 26 -19 33 -15 9 5 8 2 0
-9 -7 -8 -9 -19 -5 -23 4 -5 -1 -5 -11 -2 -16 6 -16 5 -1 -18 9 -13 13 -29 10
-34 -10 -16 11 -22 24 -6 8 10 17 12 29 6 9 -5 21 -10 26 -11 6 -1 8 -9 7 -18
-3 -13 -1 -14 12 -3 9 7 14 17 11 20 -2 4 2 8 9 8 7 0 13 -6 13 -13 0 -7 -4
-11 -8 -8 -4 2 -10 0 -14 -6 -6 -9 8 -14 28 -11 5 1 6 -3 3 -8 -10 -16 18 -19
36 -4 12 11 18 11 24 2 4 -7 3 -10 -3 -6 -6 4 -18 -2 -28 -13 -16 -18 -16 -20
9 -44 15 -13 28 -34 29 -45 1 -14 8 -21 22 -21 20 0 20 6 23 280 l4 280 -129
0 c-119 0 -129 -1 -141 -21 -12 -18 -20 -20 -57 -15 -38 6 -45 4 -63 -19 -14
-17 -32 -27 -59 -29 l-38 -4 -2 41 c-3 45 -30 77 -61 72 -12 -2 -16 -10 -15
-29 1 -16 -2 -24 -9 -20 -5 4 -8 19 -4 34 3 18 0 33 -9 40 -8 7 -13 17 -12 22
1 6 -5 13 -13 15 -13 4 -13 3 0 -6z m78 -115 c-15 -30 -16 -30 -14 -3 0 13 6
24 13 24 9 0 9 -6 1 -21z m42 -68 c14 -19 16 -27 7 -19 -9 7 -17 9 -17 4 0 -5
-7 -10 -14 -10 -11 0 -13 5 -5 19 5 10 7 23 4 28 -14 23 3 7 25 -22z m129 -52
c11 -14 6 -15 -27 -7 -4 1 8 21 12 21 2 0 9 -6 15 -14z m275 -22 c7 -18 -3
-44 -17 -44 -6 0 -18 7 -28 16 -16 14 -16 17 -2 34 17 20 38 17 47 -6z m-314
2 c0 4 5 3 11 -3 6 -6 18 -9 27 -5 11 4 14 1 9 -11 -3 -9 -2 -19 3 -22 4 -3
11 1 13 7 3 7 6 3 6 -10 1 -16 -3 -21 -11 -15 -7 4 -16 8 -20 9 -5 1 -10 3
-13 4 -13 7 -31 5 -42 -3 -15 -11 -15 -11 -18 23 -4 33 4 44 21 29 8 -6 14 -8
14 -3z m105 2 c5 4 5 1 1 -6 -6 -10 -11 -10 -22 -1 -11 9 -14 9 -14 -1 0 -8
-3 -11 -6 -7 -12 12 7 28 20 18 7 -6 17 -7 21 -3z m70 -68 c-3 -5 1 -20 10
-33 13 -21 14 -26 1 -36 -8 -7 -13 -20 -11 -30 2 -10 -2 -18 -9 -18 -7 0 -12
11 -12 23 0 12 4 22 10 21 5 -1 10 9 10 23 1 15 -4 24 -12 22 -10 -2 -10 2 -3
17 6 10 7 22 3 26 -4 5 -1 5 6 1 7 -4 10 -11 7 -16z m-171 2 c3 -5 -1 -9 -9
-9 -8 0 -12 4 -9 9 3 4 7 8 9 8 2 0 6 -4 9 -8z m300 -110 c3 -5 -1 -9 -9 -9
-8 0 -12 4 -9 9 3 4 7 8 9 8 2 0 6 -4 9 -8z m3 -47 c0 -8 -4 -12 -9 -9 -5 3
-6 10 -3 15 9 13 12 11 12 -6z m37 -63 c3 -5 -1 -9 -9 -9 -8 0 -12 4 -9 9 3 4
7 8 9 8 2 0 6 -4 9 -8z"/>
<path d="M5344 2726 c1 -20 4 -22 15 -13 14 12 18 12 37 -4 7 -5 11 -3 11 6 0
8 -3 13 -5 10 -3 -3 -11 0 -19 6 -7 6 -13 8 -13 4 0 -4 -6 -2 -14 4 -11 10
-14 7 -12 -13z"/>
<path d="M1139 2887 c6 -8 7 -18 3 -22 -4 -5 -1 -5 6 -1 10 6 10 11 1 22 -6 8
-14 14 -16 14 -3 0 0 -6 6 -13z"/>
<path d="M1100 2886 c0 -2 7 -7 16 -10 8 -3 12 -2 9 4 -6 10 -25 14 -25 6z"/>
<path d="M5216 2772 c-3 -5 1 -9 9 -9 8 0 12 4 9 9 -3 4 -7 8 -9 8 -2 0 -6 -4
-9 -8z"/>
<path d="M2465 2759 c-4 -6 -5 -12 -2 -15 2 -3 7 2 10 11 7 17 1 20 -8 4z"/>
<path d="M1096 2741 c-3 -5 2 -15 12 -22 15 -12 16 -12 5 2 -7 9 -10 19 -6 22
3 4 4 7 0 7 -3 0 -8 -4 -11 -9z"/>
<path d="M940 2605 c0 -7 30 -13 34 -7 3 4 -4 9 -15 9 -10 1 -19 0 -19 -2z"/>
<path d="M6005 2596 c-16 -12 -18 -19 -10 -43 14 -38 51 -43 66 -9 10 22 9 29
-6 46 -22 24 -25 24 -50 6z"/>
<path d="M5547 2534 c-3 -3 -3 -13 0 -22 5 -11 3 -13 -8 -7 -8 5 -11 4 -6 0
10 -12 38 -15 32 -4 -4 5 1 6 10 3 14 -6 14 -8 0 -24 -13 -14 -13 -17 0 -17 8
0 12 4 9 9 -3 4 -1 8 5 8 5 0 14 -8 20 -17 7 -14 13 -15 22 -6 6 6 19 9 28 6
11 -4 10 -1 -4 10 -11 8 -27 14 -36 12 -19 -4 -33 20 -22 38 3 7 3 9 -2 5 -4
-4 -15 -3 -25 2 -10 5 -20 7 -23 4z m93 -60 c0 -8 -19 -13 -24 -6 -3 5 1 9 9
9 8 0 15 -2 15 -3z"/>
<path d="M5350 2509 c0 -6 9 -13 19 -16 34 -9 91 -106 91 -154 0 -16 -8 -10
-33 23 -33 44 -96 82 -154 94 -29 6 -33 4 -33 -15 0 -19 -5 -21 -70 -21 -62 0
-70 -2 -70 -19 0 -12 -10 -21 -27 -26 -15 -3 -30 -10 -33 -15 -3 -4 -2 -52 1
-107 4 -54 7 -145 8 -204 1 -108 8 -129 42 -129 10 0 24 -8 31 -18 21 -30 48
-39 148 -51 107 -13 168 -29 228 -60 23 -12 72 -28 109 -37 38 -8 103 -31 146
-51 88 -41 110 -38 115 15 3 25 8 31 30 34 l27 3 3 208 2 207 -35 17 c-21 10
-34 22 -31 30 3 7 1 15 -5 19 -6 3 -8 12 -5 20 3 7 -4 18 -14 24 -11 6 -20 18
-20 27 0 13 -13 15 -97 11 -54 -3 -107 -8 -118 -12 -12 -5 -6 6 18 27 45 42
49 67 9 67 -22 0 -43 -14 -83 -55 -30 -30 -57 -55 -60 -55 -3 0 -9 20 -12 45
-8 56 -28 94 -74 146 -35 39 -53 48 -53 28z m6 -104 c34 -26 81 -85 68 -85 -4
0 -17 8 -28 19 -12 10 -34 26 -51 36 -28 17 -28 16 5 -13 l35 -31 -70 24 c-38
14 -91 25 -117 25 -26 0 -49 4 -53 9 -7 12 96 25 126 16 l24 -8 -20 23 -20 23
34 -7 c19 -3 49 -17 67 -31z m284 -30 c0 -8 -4 -15 -9 -15 -11 0 -131 -120
-131 -131 0 -6 8 -5 20 1 53 28 228 2 272 -42 20 -20 21 -28 15 -190 -3 -93
-8 -172 -11 -175 -2 -3 -17 0 -33 5 -25 9 -26 11 -5 11 12 1 22 5 22 10 0 14
-52 31 -202 65 -16 4 -28 2 -28 -2 0 -5 30 -17 68 -27 37 -10 78 -24 92 -32
l25 -14 -28 4 c-20 3 -25 1 -17 -8 5 -6 7 -15 3 -19 -4 -4 -1 -12 7 -17 12 -8
11 -9 -5 -6 -11 3 -50 11 -87 18 l-68 13 -1 60 c-1 64 -1 68 -14 156 -6 40
-10 50 -15 35 -4 -13 -10 12 -14 66 -9 101 -1 123 71 201 46 48 73 61 73 33z
m-532 -160 c1 -82 1 -147 -2 -144 -2 2 -7 56 -10 119 -10 178 -19 144 -12 -49
3 -96 4 -172 1 -170 -2 3 -12 90 -21 193 -17 198 -15 211 26 203 12 -2 15 -28
18 -152z m177 133 c59 -15 162 -66 169 -84 12 -32 18 -124 12 -177 l-7 -55
-32 16 c-18 9 -34 20 -35 25 -2 4 -8 5 -13 2 -4 -3 -21 1 -36 8 -26 13 -75 25
-130 32 -39 5 -25 -14 15 -20 54 -10 104 -26 127 -42 19 -13 18 -14 -10 -7
-16 3 -54 13 -83 21 -57 16 -82 12 -82 -12 0 -8 -4 -15 -10 -15 -5 0 -11 -15
-11 -32 -2 -37 -14 48 -23 157 -3 39 -9 98 -12 132 -5 54 -4 62 12 66 23 6 94
-1 149 -15z m523 -68 c30 -40 28 -42 -18 -24 -31 12 -62 15 -128 12 -48 -3
-96 -9 -107 -13 -16 -6 -18 -5 -8 5 21 23 117 49 179 50 55 0 62 -2 82 -30z
m72 -268 c0 -63 -2 -113 -4 -111 -2 2 -7 51 -10 109 -4 58 -10 114 -13 125 -5
17 -4 18 11 6 13 -11 16 -34 16 -129z"/>
<path d="M5635 2073 c17 -2 52 -11 79 -19 27 -7 51 -12 53 -10 9 8 -93 36
-126 35 -34 -2 -34 -2 -6 -6z"/>
<path d="M5625 2025 c39 -7 86 -16 105 -20 54 -12 29 4 -31 21 -30 7 -74 13
-99 13 -42 -1 -40 -2 25 -14z"/>
<path d="M5560 1991 c8 -6 27 -11 42 -11 14 0 55 -9 90 -20 72 -23 78 -23 78
-10 0 13 -88 38 -163 45 -45 5 -58 4 -47 -4z"/>
<path d="M5550 1952 c0 -6 26 -16 58 -22 31 -6 81 -20 110 -30 50 -19 52 -19
52 -1 0 15 -14 22 -72 35 -113 26 -148 30 -148 18z"/>
<path d="M5264 2142 c3 -6 22 -13 43 -17 41 -7 114 -42 125 -59 5 -7 8 -6 8 4
0 9 -25 26 -63 41 -73 31 -121 44 -113 31z"/>
<path d="M607 2392 c-13 -3 -17 -14 -17 -47 0 -35 4 -44 21 -48 12 -3 18 -10
15 -16 -4 -5 17 -1 46 9 37 13 59 15 76 9 27 -10 46 -3 36 13 -5 7 -2 8 5 4 8
-6 11 -2 9 10 -2 13 2 18 14 16 13 -2 16 3 13 19 -2 12 -6 23 -8 25 -5 5 -189
10 -210 6z m153 -76 c14 -18 14 -18 -7 -6 -12 8 -19 18 -16 23 3 4 6 7 7 5 1
-2 8 -12 16 -22z"/>
<path d="M808 2328 c5 -5 16 -8 23 -6 8 3 3 7 -10 11 -17 4 -21 3 -13 -5z"/>
<path d="M1045 2298 c-16 -6 -80 -30 -142 -53 l-112 -43 -36 26 -36 26 -45
-23 c-24 -13 -64 -45 -89 -72 -67 -72 -64 -88 44 -267 117 -195 209 -321 240
-329 13 -3 47 2 75 12 61 22 398 177 432 200 31 20 30 48 -3 79 -25 24 -26 26
-10 44 9 10 17 24 17 31 0 12 -173 268 -232 344 -31 39 -50 44 -103 25z m103
-60 c133 -182 210 -303 200 -313 -3 -3 -74 -37 -158 -76 -126 -57 -155 -67
-168 -57 -8 7 -45 58 -82 113 -37 55 -93 136 -124 179 -31 44 -53 83 -49 87
14 13 297 118 320 119 16 0 34 -16 61 -52z m-523 -83 c-16 -13 -31 -22 -33
-20 -2 2 9 15 24 29 16 13 31 22 33 20 2 -2 -9 -15 -24 -29z m163 -155 l24
-35 -31 35 c-17 19 -31 41 -30 50 0 13 1 13 6 0 4 -8 17 -31 31 -50z m546
-157 c4 -10 0 -24 -11 -34 -16 -16 -234 -129 -248 -129 -3 0 -24 -9 -48 -19
-108 -50 -137 -58 -137 -41 0 6 3 9 8 9 19 -3 33 2 27 11 -3 5 17 21 45 35 28
14 49 29 46 34 -6 9 262 137 281 135 7 -1 10 2 7 7 -3 5 1 9 9 9 8 0 18 -8 21
-17z m-335 -137 c-10 -9 -69 -36 -69 -32 0 7 52 35 64 36 5 0 7 -2 5 -4z"/>
<path d="M1036 2165 c-17 -18 -34 -25 -60 -25 -80 0 -126 -94 -70 -145 25 -23
137 -63 205 -72 36 -5 37 -5 57 48 35 94 33 150 -7 190 -39 38 -92 40 -125 4z
m108 -22 c29 -29 32 -71 6 -83 -8 -4 -24 -11 -35 -16 -11 -6 -39 -7 -62 -4
-23 3 -40 3 -37 -2 9 -14 -26 -8 -54 9 -39 25 -43 35 -24 56 13 15 25 17 59
12 34 -5 43 -3 43 9 0 22 28 46 54 46 13 0 35 -12 50 -27z m-175 -165 c2 -16
-18 -7 -48 21 -45 42 -38 59 8 20 22 -19 40 -37 40 -41z"/>
<path d="M940 1650 c-8 -5 -10 -10 -5 -10 6 0 17 5 25 10 8 5 11 10 5 10 -5 0
-17 -5 -25 -10z"/>
<path d="M445 1801 c-6 -11 13 -26 22 -17 4 3 1 6 -6 6 -7 0 -9 5 -6 10 3 6 4
10 1 10 -3 0 -7 -4 -11 -9z"/>
<path d="M5724 1648 c-5 -7 -2 -8 6 -3 10 6 12 4 7 -9 -4 -9 -3 -15 2 -11 6 3
14 -2 19 -11 8 -15 10 -15 15 1 4 9 12 13 18 9 7 -4 9 -3 6 3 -11 18 -66 33
-73 21z"/>
<path d="M5825 1600 c-9 -16 -13 -30 -11 -30 3 0 12 14 21 30 9 17 13 30 11
30 -3 0 -12 -13 -21 -30z"/>
<path d="M1710 1478 c-36 -5 -139 -22 -230 -39 -317 -58 -340 -67 -340 -131 0
-33 134 -438 163 -493 8 -17 37 -51 64 -76 61 -59 254 -207 300 -230 32 -17
37 -17 91 1 283 91 468 152 516 170 l57 22 -3 41 c-3 39 -7 44 -66 82 -211
135 -247 161 -244 176 2 13 -70 223 -138 402 -21 56 -57 89 -92 86 -7 -1 -42
-6 -78 -11z m124 -31 c28 -42 47 -110 35 -121 -8 -8 -13 -7 -16 2 -3 6 -10 9
-16 5 -7 -4 -8 0 -4 11 4 9 3 15 -2 12 -4 -3 -14 6 -21 19 -11 21 -21 25 -62
25 -45 0 -441 -75 -461 -87 -5 -3 -13 1 -18 8 -8 12 -11 12 -20 -1 -8 -11 -12
-12 -16 -2 -2 6 -8 10 -13 7 -4 -3 -10 2 -14 10 -3 8 -2 16 2 18 19 12 133 39
277 66 304 59 328 61 349 28z m-47 -76 c32 -39 139 -329 125 -343 -4 -4 -69
-22 -143 -38 -74 -17 -172 -39 -219 -50 -113 -26 -138 -26 -150 3 -17 41 -120
323 -120 330 0 15 53 31 253 72 116 24 218 44 225 44 7 1 20 -8 29 -18z m77
-76 c-5 -11 -2 -13 11 -9 10 4 21 1 26 -7 13 -21 11 -29 -8 -30 -11 0 -13 -3
-5 -6 6 -2 12 -12 12 -21 0 -15 -1 -15 -17 0 -14 15 -14 19 -2 34 12 16 12 17
-3 12 -17 -7 -33 16 -22 33 9 14 14 10 8 -6z m406 -506 c0 -15 -17 -10 -24 6
-3 8 -11 15 -19 15 -7 0 -24 12 -38 26 -23 25 -22 25 29 -6 28 -17 52 -36 52
-41z"/>
<path d="M2443 1015 c0 -22 2 -30 4 -17 2 12 2 30 0 40 -3 9 -5 -1 -4 -23z"/>
</g>
</svg>
